<svg width="245" height="59" viewBox="0 0 245 59" fill="none" xmlns="http://www.w3.org/2000/svg">
<path d="M13.5352 28.4395C9.92578 28.4395 6.98438 27.2676 4.71094 24.9238C2.4375 22.5684 1.30078 19.5039 1.30078 15.7305C1.30078 11.7461 2.45508 8.52344 4.76367 6.0625C7.07227 3.60156 10.1309 2.37109 13.9395 2.37109C17.5371 2.37109 20.4434 3.54883 22.6582 5.9043C24.8848 8.25977 25.998 11.3652 25.998 15.2207C25.998 19.1816 24.8438 22.375 22.5352 24.8008C20.2383 27.2266 17.2383 28.4395 13.5352 28.4395ZM13.7812 7.25781C11.7891 7.25781 10.207 8.00781 9.03516 9.50781C7.86328 10.9961 7.27734 12.9707 7.27734 15.4316C7.27734 17.9277 7.86328 19.9023 9.03516 21.3555C10.207 22.8086 11.7422 23.5352 13.6406 23.5352C15.5977 23.5352 17.1504 22.832 18.2988 21.4258C19.4473 20.0078 20.0215 18.0449 20.0215 15.5371C20.0215 12.9238 19.4648 10.8906 18.3516 9.4375C17.2383 7.98437 15.7148 7.25781 13.7812 7.25781ZM48.2695 27.1035C46.4297 27.9941 44.0273 28.4395 41.0625 28.4395C37.1953 28.4395 34.1543 27.3027 31.9395 25.0293C29.7246 22.7559 28.6172 19.7266 28.6172 15.9414C28.6172 11.9102 29.8594 8.64063 32.3438 6.13281C34.8398 3.625 38.0742 2.37109 42.0469 2.37109C44.5078 2.37109 46.582 2.68164 48.2695 3.30273V8.76953C46.582 7.76172 44.6602 7.25781 42.5039 7.25781C40.1367 7.25781 38.2266 8.00195 36.7734 9.49023C35.3203 10.9785 34.5938 12.9941 34.5938 15.5371C34.5938 17.9746 35.2793 19.9199 36.6504 21.373C38.0215 22.8145 39.8672 23.5352 42.1875 23.5352C44.4023 23.5352 46.4297 22.9961 48.2695 21.918V27.1035ZM67.7812 28H52.6641V2.79297H67.2012V7.41602H58.3418V13.0234H66.5859V17.6289H58.3418V23.3945H67.7812V28ZM94.5176 28H88.3301L86.5371 22.3926H77.5723L75.7969 28H69.6445L78.8203 2.79297H85.5527L94.5176 28ZM85.2363 18.0332L82.5293 9.56055C82.3301 8.92773 82.1895 8.17188 82.1074 7.29297H81.9668C81.9082 8.03125 81.7617 8.76367 81.5273 9.49023L78.7852 18.0332H85.2363ZM120.34 28H114.609L104.221 12.1621C103.611 11.2363 103.189 10.5391 102.955 10.0703H102.885C102.979 10.9609 103.025 12.3203 103.025 14.1484V28H97.6641V2.79297H103.781L113.783 18.1387C114.24 18.8301 114.662 19.5156 115.049 20.1953H115.119C115.025 19.6094 114.979 18.4551 114.979 16.7324V2.79297H120.34V28ZM141.732 19.3164V28H136.055V2.79297H144.949C151.301 2.79297 154.477 5.4707 154.477 10.8262C154.477 13.3574 153.562 15.4082 151.734 16.9785C149.918 18.5371 147.486 19.3164 144.439 19.3164H141.732ZM141.732 7.15234V15.0098H143.965C146.988 15.0098 148.5 13.6855 148.5 11.0371C148.5 8.44727 146.988 7.15234 143.965 7.15234H141.732ZM173.18 28H158.168V2.79297H163.846V23.3945H173.18V28ZM196.4 17.084C196.4 24.6543 192.873 28.4395 185.818 28.4395C178.975 28.4395 175.553 24.7422 175.553 17.3477V2.79297H181.248V17.418C181.248 21.4961 182.842 23.5352 186.029 23.5352C189.158 23.5352 190.723 21.5664 190.723 17.6289V2.79297H196.4V17.084ZM222.592 26.3125C220.131 27.7305 217.072 28.4395 213.416 28.4395C209.361 28.4395 206.162 27.3203 203.818 25.082C201.486 22.832 200.32 19.7383 200.32 15.8008C200.32 11.8398 201.598 8.61133 204.152 6.11523C206.707 3.61914 210.105 2.37109 214.348 2.37109C217.02 2.37109 219.375 2.74023 221.414 3.47852V8.80469C219.469 7.67969 217.09 7.11719 214.277 7.11719C211.922 7.11719 210 7.88477 208.512 9.41992C207.035 10.9434 206.297 12.9824 206.297 15.5371C206.297 18.127 206.959 20.1309 208.283 21.5488C209.619 22.9668 211.418 23.6758 213.68 23.6758C215.039 23.6758 216.117 23.4824 216.914 23.0957V18.1738H211.869V13.6387H222.592V26.3125ZM226.336 27.0332V21.4082C227.355 22.2637 228.463 22.9082 229.658 23.3418C230.854 23.7637 232.061 23.9746 233.279 23.9746C233.994 23.9746 234.615 23.9102 235.143 23.7812C235.682 23.6523 236.127 23.4766 236.479 23.2539C236.842 23.0195 237.111 22.75 237.287 22.4453C237.463 22.1289 237.551 21.7891 237.551 21.4258C237.551 20.9336 237.41 20.4941 237.129 20.1074C236.848 19.7207 236.461 19.3633 235.969 19.0352C235.488 18.707 234.914 18.3906 234.246 18.0859C233.578 17.7812 232.857 17.4707 232.084 17.1543C230.115 16.334 228.645 15.332 227.672 14.1484C226.711 12.9648 226.23 11.5352 226.23 9.85938C226.23 8.54687 226.494 7.42187 227.021 6.48438C227.549 5.53516 228.264 4.75586 229.166 4.14648C230.08 3.53711 231.135 3.0918 232.33 2.81055C233.525 2.51758 234.791 2.37109 236.127 2.37109C237.439 2.37109 238.6 2.45313 239.607 2.61719C240.627 2.76953 241.564 3.00977 242.42 3.33789V8.59375C241.998 8.30078 241.535 8.04297 241.031 7.82031C240.539 7.59766 240.029 7.41602 239.502 7.27539C238.975 7.12305 238.447 7.01172 237.92 6.94141C237.404 6.87109 236.912 6.83594 236.443 6.83594C235.799 6.83594 235.213 6.90039 234.686 7.0293C234.158 7.14648 233.713 7.31641 233.35 7.53906C232.986 7.76172 232.705 8.03125 232.506 8.34766C232.307 8.65234 232.207 8.99805 232.207 9.38477C232.207 9.80664 232.318 10.1875 232.541 10.5273C232.764 10.8555 233.08 11.1719 233.49 11.4766C233.9 11.7695 234.398 12.0625 234.984 12.3555C235.57 12.6367 236.232 12.9297 236.971 13.2344C237.979 13.6562 238.881 14.1074 239.678 14.5879C240.486 15.0566 241.178 15.5898 241.752 16.1875C242.326 16.7852 242.766 17.4707 243.07 18.2441C243.375 19.0059 243.527 19.8965 243.527 20.916C243.527 22.3223 243.258 23.5059 242.719 24.4668C242.191 25.416 241.471 26.1895 240.557 26.7871C239.643 27.373 238.576 27.7949 237.357 28.0527C236.15 28.3105 234.873 28.4395 233.525 28.4395C232.143 28.4395 230.824 28.3223 229.57 28.0879C228.328 27.8535 227.25 27.502 226.336 27.0332Z" fill="white"/>
<path d="M80.0938 57V47.5938H68.8691V57H67.5156V37.3945H68.8691V46.3633H80.0938V37.3945H81.4336V57H80.0938ZM94.5586 57V54.1973H94.5039C94.0573 55.1543 93.4056 55.9199 92.5488 56.4941C91.7012 57.0592 90.7578 57.3418 89.7188 57.3418C88.388 57.3418 87.3353 56.9681 86.5605 56.2207C85.7858 55.4733 85.3984 54.5299 85.3984 53.3906C85.3984 50.9479 87.0163 49.4714 90.252 48.9609L94.5586 48.3184C94.5586 45.3105 93.4284 43.8066 91.168 43.8066C89.6276 43.8066 88.1283 44.4264 86.6699 45.666V44.1484C87.1895 43.7383 87.8913 43.3874 88.7754 43.0957C89.6686 42.804 90.5072 42.6582 91.291 42.6582C92.7311 42.6582 93.8431 43.1048 94.627 43.998C95.4199 44.8913 95.8164 46.1901 95.8164 47.8945V57H94.5586ZM90.7031 50.0273C89.2357 50.237 88.2057 50.5788 87.6133 51.0527C87.0208 51.5176 86.7246 52.2786 86.7246 53.3359C86.7246 54.1654 86.998 54.849 87.5449 55.3867C88.1009 55.9245 88.8711 56.1934 89.8555 56.1934C91.2044 56.1934 92.3255 55.6966 93.2188 54.7031C94.112 53.7005 94.5586 52.4108 94.5586 50.834V49.4668L90.7031 50.0273ZM109.543 57V48.8516C109.543 45.4883 108.331 43.8066 105.906 43.8066C104.557 43.8066 103.45 44.3034 102.584 45.2969C101.718 46.2812 101.285 47.5026 101.285 48.9609V57H100.027V43H101.285V45.543H101.34C102.361 43.6198 103.956 42.6582 106.125 42.6582C107.638 42.6582 108.796 43.1641 109.598 44.1758C110.4 45.1784 110.801 46.6139 110.801 48.4824V57H109.543ZM132.566 57V48.5781C132.566 46.819 132.288 45.584 131.732 44.873C131.186 44.1621 130.315 43.8066 129.121 43.8066C128.018 43.8066 127.066 44.2806 126.264 45.2285C125.462 46.1764 125.061 47.3659 125.061 48.7969V57H123.803V48.4824C123.803 45.3652 122.618 43.8066 120.248 43.8066C119.109 43.8066 118.161 44.2852 117.404 45.2422C116.648 46.1901 116.27 47.4206 116.27 48.9336V57H115.012V43H116.27V45.3242H116.324C117.299 43.5469 118.726 42.6582 120.604 42.6582C121.624 42.6582 122.495 42.9544 123.215 43.5469C123.944 44.1302 124.436 44.9004 124.691 45.8574C125.129 44.8457 125.753 44.0618 126.564 43.5059C127.385 42.9408 128.273 42.6582 129.23 42.6582C132.293 42.6582 133.824 44.554 133.824 48.3457V57H132.566ZM146.402 57V54.1973H146.348C145.901 55.1543 145.249 55.9199 144.393 56.4941C143.545 57.0592 142.602 57.3418 141.562 57.3418C140.232 57.3418 139.179 56.9681 138.404 56.2207C137.63 55.4733 137.242 54.5299 137.242 53.3906C137.242 50.9479 138.86 49.4714 142.096 48.9609L146.402 48.3184C146.402 45.3105 145.272 43.8066 143.012 43.8066C141.471 43.8066 139.972 44.4264 138.514 45.666V44.1484C139.033 43.7383 139.735 43.3874 140.619 43.0957C141.512 42.804 142.351 42.6582 143.135 42.6582C144.575 42.6582 145.687 43.1048 146.471 43.998C147.264 44.8913 147.66 46.1901 147.66 47.8945V57H146.402ZM142.547 50.0273C141.079 50.237 140.049 50.5788 139.457 51.0527C138.865 51.5176 138.568 52.2786 138.568 53.3359C138.568 54.1654 138.842 54.849 139.389 55.3867C139.945 55.9245 140.715 56.1934 141.699 56.1934C143.048 56.1934 144.169 55.6966 145.062 54.7031C145.956 53.7005 146.402 52.4108 146.402 50.834V49.4668L142.547 50.0273ZM161.811 57V54.457H161.756C161.3 55.3411 160.626 56.043 159.732 56.5625C158.839 57.082 157.832 57.3418 156.711 57.3418C154.988 57.3418 153.58 56.7129 152.486 55.4551C151.402 54.1973 150.859 52.4609 150.859 50.2461C150.859 47.9857 151.452 46.1582 152.637 44.7637C153.831 43.36 155.376 42.6582 157.271 42.6582C159.368 42.6582 160.863 43.5195 161.756 45.2422H161.811V36.2734H163.068V57H161.811ZM161.811 48.4824C161.811 47.179 161.396 46.0762 160.566 45.1738C159.746 44.2624 158.639 43.8066 157.244 43.8066C155.777 43.8066 154.564 44.3717 153.607 45.502C152.65 46.623 152.172 48.168 152.172 50.1367C152.172 52.069 152.6 53.5638 153.457 54.6211C154.323 55.6693 155.435 56.1934 156.793 56.1934C158.388 56.1934 159.623 55.7012 160.498 54.7168C161.373 53.7233 161.811 52.5156 161.811 51.0938V48.4824ZM167.867 50.0547C167.867 51.9779 168.309 53.4818 169.193 54.5664C170.087 55.651 171.308 56.1934 172.857 56.1934C174.425 56.1934 175.956 55.6146 177.451 54.457V55.7969C176.002 56.8268 174.384 57.3418 172.598 57.3418C170.793 57.3418 169.335 56.6947 168.223 55.4004C167.111 54.1061 166.555 52.2786 166.555 49.918C166.555 47.8763 167.133 46.1582 168.291 44.7637C169.458 43.36 170.971 42.6582 172.83 42.6582C174.571 42.6582 175.906 43.2689 176.836 44.4902C177.766 45.7116 178.23 47.3796 178.23 49.4941V50.0547H167.867ZM176.918 48.9062C176.863 47.293 176.476 46.0397 175.756 45.1465C175.036 44.2533 174.042 43.8066 172.775 43.8066C171.463 43.8066 170.374 44.2487 169.508 45.1328C168.651 46.0078 168.122 47.2656 167.922 48.9062H176.918Z" fill="white"/>
</svg>
